<svg width="862" height="72" viewBox="0 0 862 72" fill="none" xmlns="http://www.w3.org/2000/svg">
<path fill-rule="evenodd" clip-rule="evenodd" d="M365.77 36V72H613.77H861.77V36V0H613.77H365.77V36ZM8.18529 15.36C3.10129 17.675 0.770296 21.51 0.770296 27.558C0.770296 33.931 3.7763 38.208 9.5533 40.054C18.5553 42.932 22.6473 45.207 23.5683 47.851C25.5303 53.479 20.8333 57.797 14.1193 56.538C10.7593 55.907 3.2983 49.239 2.2473 45.926C1.9103 44.867 1.1673 44 0.5963 44C0.0243002 44 -0.170698 44.712 0.163302 45.582C0.497302 46.452 0.777296 49.714 0.785296 52.832C0.794296 56.152 1.1393 57.967 1.6173 57.213C2.2703 56.184 3.82229 56.155 9.35329 57.068C20.9583 58.985 27.9163 55.72 29.7733 47.487C31.8763 38.163 27.6223 32.53 15.8243 29.016C6.0283 26.099 3.4713 22.208 8.2253 17.455C12.8873 12.792 18.7543 14.853 24.8783 23.307L27.7703 27.3V21.4C27.7703 15.663 27.6943 15.496 25.0203 15.367C23.5083 15.293 19.7953 14.946 16.7703 14.595C12.9743 14.154 10.3143 14.391 8.18529 15.36ZM220.771 15.123C214.249 17.724 210.94 24.204 212.733 30.862C214.089 35.898 218.197 39.401 225.101 41.408C232.54 43.57 235.77 46.308 235.77 50.45C235.77 54.227 234.368 55.73 230.04 56.596C225.608 57.482 220.182 54.499 215.975 48.865C213.999 46.219 212.217 44.219 212.015 44.422C211.813 44.624 211.945 47.425 212.309 50.645C213.059 57.268 211.87 56.688 225.77 57.21C231.799 57.437 233.819 57.121 236.071 55.598C239.975 52.957 241.77 48.974 241.77 42.95C241.77 35.904 238.069 32.177 228.066 29.15C217.882 26.069 214.959 21.356 220.52 16.982C225.61 12.978 232.882 16.454 238.461 25.557C239.496 27.246 239.658 26.911 239.696 23C239.72 20.525 239.409 17.995 239.005 17.377C238.222 16.181 229.142 13.958 225.471 14.063C224.26 14.098 222.145 14.575 220.771 15.123ZM849.52 15.052C851.606 15.025 851.77 15.459 851.77 21.011C851.77 24.305 851.407 27 850.963 27C850.518 27 848.709 24.948 846.941 22.44C842.931 16.751 837.916 14.327 834.066 16.217C826.479 19.943 828.89 25.077 840.069 29.004C844.358 30.511 848.976 32.784 850.33 34.057C853.543 37.074 855.03 42.607 853.791 46.928C851.223 55.882 846.934 58.157 833.353 57.768L823.96 57.5L823.376 54C822.552 49.06 822.631 42.995 823.52 43.026C823.933 43.04 825.775 45.27 827.614 47.982C831.854 54.234 838.071 57.597 842.368 55.963C845.792 54.661 846.734 53.36 846.755 49.905C846.775 46.48 844.347 44.435 837.439 42.058C828.672 39.042 825.955 37.053 824.151 32.328C821.668 25.827 823.83 19.827 830.074 15.889C832.794 14.174 834.314 13.963 840.27 14.477C844.12 14.81 848.283 15.068 849.52 15.052ZM53.0203 15.689C54.6133 16.106 54.7703 17.933 54.7703 36C54.7703 54.067 54.6133 55.894 53.0203 56.311C52.0573 56.562 55.5453 56.759 60.7703 56.748C65.9953 56.737 69.2583 56.533 68.0203 56.294C65.8673 55.88 65.7703 55.434 65.7703 45.93V36H72.2703H78.7703V45.93C78.7703 55.434 78.6733 55.88 76.5203 56.294C75.2823 56.533 78.7703 56.728 84.2703 56.728C89.7703 56.728 93.2583 56.533 92.0203 56.294C89.7773 55.862 89.7703 55.801 89.7703 36C89.7703 16.199 89.7773 16.138 92.0203 15.706C93.2583 15.467 89.7703 15.272 84.2703 15.272C78.7703 15.272 75.2993 15.47 76.5573 15.711C78.7663 16.134 78.8333 16.456 78.5573 25.324L78.2703 34.5H72.2703H66.2703L65.9833 25.324C65.7073 16.456 65.7743 16.134 67.9833 15.711C69.2413 15.47 65.9953 15.263 60.7703 15.252C55.5453 15.241 52.0573 15.438 53.0203 15.689ZM115.02 15.689C116.613 16.106 116.77 17.933 116.77 36C116.77 54.067 116.613 55.894 115.02 56.311C114.058 56.562 117.545 56.768 122.77 56.768C127.995 56.768 131.482 56.562 130.52 56.311C128.927 55.894 128.77 54.067 128.77 36C128.77 17.933 128.927 16.106 130.52 15.689C131.482 15.438 127.995 15.232 122.77 15.232C117.545 15.232 114.058 15.438 115.02 15.689ZM151.925 15.671C152.888 15.927 154.609 18.905 156.046 22.805C157.403 26.487 160.875 35.913 163.763 43.75C168.42 56.393 169.27 58 171.296 58C173.77 58 173.944 57.598 183.883 28.78C186.51 21.164 188.872 15.894 189.77 15.646C190.595 15.418 189.245 15.241 186.77 15.252C184.295 15.263 183.282 15.467 184.52 15.706C185.758 15.944 186.77 16.291 186.77 16.478C186.77 17.115 176.689 45.414 176.336 45.767C176.143 45.961 173.729 39.368 170.972 31.117C166.062 16.421 166.003 16.106 168.115 15.693C169.3 15.462 165.77 15.263 160.27 15.252C154.77 15.241 151.015 15.43 151.925 15.671ZM272.825 35.075C267.197 50.298 264.88 55.411 263.325 56.041C261.85 56.638 262.68 56.853 266.27 56.8C269.02 56.76 270.223 56.528 268.944 56.284C267.664 56.04 266.805 55.314 267.034 54.67C267.264 54.027 268.287 51.138 269.308 48.25L271.165 43H277.387H283.609L285.335 48.25C286.285 51.138 287.255 54.027 287.492 54.67C287.729 55.314 286.876 56.04 285.596 56.284C284.317 56.528 287.77 56.737 293.27 56.748C298.77 56.759 302.592 56.583 301.763 56.358C300.841 56.106 297.349 48.103 292.761 35.724C285.914 17.251 285.048 15.476 282.767 15.221C280.385 14.955 279.927 15.87 272.825 35.075ZM324.02 15.689C325.613 16.106 325.77 17.933 325.77 36C325.77 54.067 325.613 55.894 324.02 56.311C323.058 56.562 326.545 56.759 331.77 56.748C336.995 56.737 340.257 56.533 339.02 56.294C336.777 55.862 336.77 55.801 336.77 36C336.77 16.199 336.777 16.138 339.02 15.706C340.257 15.467 336.995 15.263 331.77 15.252C326.545 15.241 323.058 15.438 324.02 15.689ZM411.614 16.554C415.32 18.037 417.77 21.238 417.77 24.597C417.77 27.231 414.862 31.836 412.781 32.497C410.397 33.253 410.094 35 412.347 35C413.214 35 415.239 36.315 416.847 37.923C422.655 43.731 419.429 53.612 410.956 55.965C408.929 56.528 401.42 56.93 394.27 56.858C387.12 56.786 382.283 56.533 383.52 56.294C385.763 55.862 385.77 55.801 385.77 36C385.77 16.199 385.763 16.138 383.52 15.706C382.283 15.467 387.223 15.211 394.5 15.136C404.39 15.034 408.71 15.392 411.614 16.554ZM469.078 35.208C474.305 49.243 477.163 55.636 478.437 56.137C479.445 56.535 475.32 56.83 469.27 56.794C463.22 56.757 459.283 56.533 460.52 56.294C463.16 55.786 463.189 55.131 460.856 48.5L459.097 43.5H453.323H447.548L445.304 49.698L443.06 55.895L445.665 56.298C447.098 56.519 445.795 56.716 442.77 56.734C439.745 56.753 438.007 56.572 438.909 56.332C439.955 56.054 442.268 51.304 445.306 43.198C456.666 12.883 455.656 15 458.749 15C461.479 15 461.748 15.526 469.078 35.208ZM535.77 22.5C535.77 26.625 535.433 29.994 535.02 29.987C534.607 29.98 532.92 27.191 531.27 23.79C529.374 19.883 527.442 17.323 526.02 16.836L523.77 16.064V35.966V55.867L526.52 56.284C528.033 56.513 523.87 56.7 517.27 56.7C510.67 56.7 506.507 56.513 508.02 56.284L510.77 55.867V35.965C510.77 17.441 510.649 16.106 509.02 16.683C505.93 17.779 504.005 20.027 501.835 25.071C499.43 30.661 497.167 31.767 498.145 26.875C498.489 25.156 498.77 21.781 498.77 19.375V15H517.27H535.77V22.5ZM593.77 22.5C593.77 30.745 592.714 32.096 590.929 26.135C589.51 21.399 586.498 17.424 583.794 16.717C581.812 16.198 581.77 16.601 581.77 36.027V55.867L584.52 56.284C586.033 56.513 581.87 56.7 575.27 56.7C568.67 56.7 564.507 56.513 566.02 56.284L568.77 55.867V35.965C568.77 17.441 568.649 16.106 567.02 16.683C563.82 17.818 561.92 20.141 560.139 25.095C559.169 27.793 558.014 30 557.572 30C557.131 30 556.77 26.625 556.77 22.5V15H575.27H593.77V22.5ZM645.995 20.25C646.476 26.286 645.502 28.276 643.74 24.857C641.103 19.738 637.562 17 633.583 17H629.77V25.5C629.77 33.333 629.927 34 631.77 34C633.789 34 636.272 31.926 638.461 28.412C639.436 26.847 639.663 28.188 639.711 35.809C639.749 41.774 639.411 44.896 638.77 44.5C638.22 44.16 637.77 43.213 637.77 42.396C637.77 40.442 633.287 36 631.315 36C630.03 36 629.77 37.598 629.77 45.5V55H632.82C637.501 55 641.429 52.438 644.326 47.494C645.775 45.022 647.142 43 647.365 43C647.588 43 647.77 46.15 647.77 50V57H630.77C620.103 57 613.77 56.627 613.77 56C613.77 55.45 614.445 55 615.27 55C616.551 55 616.77 52.222 616.77 36C616.77 19.778 616.551 17 615.27 17C614.445 17 613.77 16.55 613.77 16C613.77 15.375 619.738 15 629.673 15H645.577L645.995 20.25ZM699.1 16.075C702.093 16.906 703.252 17.91 704.407 20.673C706.913 26.672 703.634 33.9 698.331 34.063C696.27 34.127 696.27 34.127 698.305 34.952C701.967 36.436 703.257 39.12 703.77 46.321C704.287 53.584 706.149 56.321 707.342 51.571C707.696 50.157 708.397 49 708.897 49C710.173 49 708.814 54.14 706.981 56.25C705.28 58.207 697.899 58.674 694.809 57.021C692.24 55.646 690.77 50.743 690.77 43.551C690.77 37.184 689.697 35 686.57 35C684.952 35 684.77 36.053 684.77 45.427C684.77 54.516 684.994 55.912 686.52 56.311C687.482 56.562 683.545 56.759 677.77 56.748C671.995 56.737 668.283 56.533 669.52 56.294C671.763 55.862 671.77 55.801 671.77 36C671.77 16.199 671.763 16.138 669.52 15.706C668.283 15.467 673.57 15.214 681.27 15.142C688.97 15.07 696.993 15.49 699.1 16.075ZM746.52 15.689C744.927 16.106 744.77 17.933 744.77 36C744.77 54.067 744.927 55.894 746.52 56.311C747.482 56.562 743.77 56.768 738.27 56.768C732.77 56.768 729.058 56.562 730.02 56.311C731.613 55.894 731.77 54.067 731.77 36C731.77 17.933 731.613 16.106 730.02 15.689C729.058 15.438 732.77 15.232 738.27 15.232C743.77 15.232 747.482 15.438 746.52 15.689ZM798.995 20.25C799.476 26.286 798.502 28.276 796.74 24.857C794.103 19.738 790.562 17 786.583 17H782.77V25.5C782.77 33.333 782.927 34 784.77 34C786.789 34 789.272 31.926 791.461 28.412C792.436 26.847 792.663 28.188 792.711 35.809C792.749 41.774 792.411 44.896 791.77 44.5C791.22 44.16 790.77 43.213 790.77 42.396C790.77 40.442 786.287 36 784.315 36C783.03 36 782.77 37.598 782.77 45.5V55H785.82C790.501 55 794.429 52.438 797.326 47.494C798.775 45.022 800.142 43 800.365 43C800.588 43 800.77 46.15 800.77 50V57H783.77C773.103 57 766.77 56.627 766.77 56C766.77 55.45 767.445 55 768.27 55C769.551 55 769.77 52.222 769.77 36C769.77 19.778 769.551 17 768.27 17C767.445 17 766.77 16.55 766.77 16C766.77 15.375 772.738 15 782.673 15H798.577L798.995 20.25ZM398.77 25C398.77 32.133 399.066 34 400.199 34C403.234 34 404.77 30.975 404.77 25C404.77 19.025 403.234 16 400.199 16C399.066 16 398.77 17.867 398.77 25ZM684.77 25C684.77 34.639 685.279 35.433 689.547 32.443C691.451 31.11 691.77 29.967 691.77 24.478C691.77 19.166 691.439 17.893 689.836 17.035C685.286 14.6 684.77 15.411 684.77 25ZM280.747 34.434C281.86 37.667 282.77 40.693 282.77 41.157C282.77 41.62 280.247 42 277.163 42C273.093 42 271.685 41.657 272.027 40.75C272.286 40.063 273.527 36.666 274.785 33.202C276.044 29.738 277.445 27.275 277.899 27.729C278.353 28.183 279.635 31.2 280.747 34.434ZM451.309 33.248C450.288 36.137 449.25 39.063 449.004 39.75C448.687 40.634 449.905 41 453.163 41C455.697 41 457.77 40.63 457.77 40.178C457.77 38.867 454.572 29.576 453.835 28.748C453.467 28.335 452.331 30.36 451.309 33.248ZM398.77 45.5C398.77 54.964 398.949 56 400.579 56C404.661 56 406.174 53.535 406.588 46.216C406.932 40.12 406.711 38.941 404.877 37.107C403.718 35.948 401.87 35 400.77 35C398.897 35 398.77 35.667 398.77 45.5Z" fill="#95C93D"/>
</svg>
